<svg width="1280" height="720" viewBox="0 0 1280 720" xmlns="http://www.w3.org/2000/svg" role="img" aria-labelledby="title desc">
  <title id="title">Yourcraft Chat Widget UI</title>
  <desc id="desc">Illustration based on ChatWidget with channels, messages, input, and online users interactions.</desc>
  <rect width="1280" height="720" fill="#081121"/>
  <rect x="24" y="24" width="1232" height="672" rx="14" fill="#0d172b" stroke="#314a76" stroke-width="2"/>

  <rect x="44" y="44" width="1192" height="52" rx="10" fill="#12223d"/>
  <text x="66" y="76" fill="#f8cb64" font-family="Segoe UI, Arial" font-size="24" font-weight="700">Header Chat Toggle + Widget</text>
  <text x="980" y="76" fill="#90a8d4" font-family="Segoe UI, Arial" font-size="18">Unread: 4</text>

  <rect x="120" y="116" width="360" height="520" rx="10" fill="#0a1426" stroke="#355184"/>
  <rect x="120" y="116" width="360" height="42" rx="10" fill="#1c2f52"/>
  <text x="136" y="143" fill="#deebff" font-family="Segoe UI, Arial" font-size="16" font-weight="700">ChatHeader • #general</text>

  <rect x="120" y="158" width="120" height="426" fill="#111f36"/>
  <text x="132" y="186" fill="#8fa7d3" font-family="Segoe UI, Arial" font-size="13">Channels</text>
  <text x="132" y="214" fill="#dce9ff" font-family="Segoe UI, Arial" font-size="14"># general</text>
  <text x="132" y="238" fill="#b6c8e8" font-family="Segoe UI, Arial" font-size="14"># pvp</text>
  <text x="132" y="262" fill="#b6c8e8" font-family="Segoe UI, Arial" font-size="14">DM: Hexline</text>
  <rect x="132" y="286" width="96" height="28" rx="8" fill="#233f70"/>
  <text x="148" y="305" fill="#e3efff" font-family="Segoe UI, Arial" font-size="13">New DM</text>

  <rect x="240" y="158" width="240" height="426" fill="#0f1a30"/>
  <text x="254" y="188" fill="#8fa7d3" font-family="Segoe UI, Arial" font-size="13">ChatMessageList</text>

  <rect x="254" y="202" width="212" height="62" rx="8" fill="#1d3258"/>
  <text x="264" y="226" fill="#8fd8ff" font-family="Segoe UI, Arial" font-size="13">Asterion:</text>
  <text x="322" y="226" fill="#deebff" font-family="Segoe UI, Arial" font-size="13">queueing pvp in 10</text>
  <text x="264" y="246" fill="#deebff" font-family="Segoe UI, Arial" font-size="13">mins, who is in?</text>

  <rect x="254" y="272" width="212" height="62" rx="8" fill="#253f6e"/>
  <text x="264" y="296" fill="#8ff0be" font-family="Segoe UI, Arial" font-size="13">Hexline:</text>
  <text x="320" y="296" fill="#deebff" font-family="Segoe UI, Arial" font-size="13">I can run warlock</text>
  <text x="264" y="316" fill="#deebff" font-family="Segoe UI, Arial" font-size="13">support build.</text>

  <rect x="240" y="584" width="240" height="52" fill="#111f36"/>
  <rect x="252" y="596" width="184" height="28" rx="8" fill="#1f365e"/>
  <text x="262" y="615" fill="#90a7d2" font-family="Segoe UI, Arial" font-size="13">Type a message...</text>
  <rect x="440" y="596" width="28" height="28" rx="8" fill="#2a4d84"/>

  <rect x="560" y="140" width="616" height="224" rx="12" fill="#101d36" stroke="#355183"/>
  <text x="584" y="176" fill="#f8cb64" font-family="Segoe UI, Arial" font-size="24" font-weight="700">Social Layer Backed by Current Chat Components</text>
  <text x="584" y="214" fill="#b9caea" font-family="Segoe UI, Arial" font-size="20">Based on ChatWidget, ChatChannelList, ChatMessageList, and ChatOnlineUsers.</text>
  <text x="584" y="248" fill="#b9caea" font-family="Segoe UI, Arial" font-size="20">Resizable/draggable widget, channel switching, DMs, and unread badges.</text>

  <rect x="560" y="392" width="616" height="244" rx="12" fill="#0f1b33" stroke="#355183"/>
  <text x="584" y="430" fill="#8fa8d4" font-family="Consolas, monospace" font-size="16">Header.svelte</text>
  <text x="584" y="458" fill="#c3d5f8" font-family="Consolas, monospace" font-size="16">button title=\"Toggle Chat\" + unread badge</text>
  <text x="584" y="490" fill="#8fa8d4" font-family="Consolas, monospace" font-size="16">ChatWidget.svelte</text>
  <text x="584" y="518" fill="#c3d5f8" font-family="Consolas, monospace" font-size="16">drag/resize + channel list + message list + chat input</text>
  <text x="584" y="550" fill="#8fa8d4" font-family="Consolas, monospace" font-size="16">ChatOnlineUsers.svelte</text>
  <text x="584" y="578" fill="#c3d5f8" font-family="Consolas, monospace" font-size="16">new DM flow via online users</text>
</svg>
