<svg width="1280" height="720" viewBox="0 0 1280 720" xmlns="http://www.w3.org/2000/svg" role="img" aria-labelledby="title desc">
  <title id="title">Yourcraft PvP Battle and Loadout UI</title>
  <desc id="desc">Illustration based on current PvP battle and loadout interfaces, showing team cards, timer, and trait selection.</desc>
  <defs>
    <linearGradient id="bg" x1="0" y1="0" x2="1" y2="1">
      <stop offset="0%" stop-color="#0a1020"/>
      <stop offset="100%" stop-color="#16162b"/>
    </linearGradient>
  </defs>
  <rect width="1280" height="720" fill="url(#bg)"/>
  <rect x="20" y="20" width="1240" height="680" rx="14" fill="#0e172c" stroke="#355082" stroke-width="2"/>

  <rect x="40" y="40" width="1200" height="52" rx="10" fill="#142441"/>
  <text x="62" y="73" fill="#f7cb62" font-family="Segoe UI, Arial" font-size="24" font-weight="700">PvP • Battle + Loadout Preview</text>
  <text x="930" y="73" fill="#8fa8d6" font-family="Segoe UI, Arial" font-size="18">Mode: 3v3</text>

  <rect x="40" y="112" width="728" height="420" rx="12" fill="#0a1428" stroke="#355084"/>
  <text x="62" y="146" fill="#8fa7d3" font-family="Consolas, monospace" font-size="17">PhaserBattleView</text>

  <rect x="62" y="168" width="684" height="120" rx="10" fill="#12203b"/>
  <text x="84" y="202" fill="#6fb6ff" font-family="Segoe UI, Arial" font-size="22" font-weight="700">Order Team</text>
  <text x="84" y="233" fill="#d7e6ff" font-family="Segoe UI, Arial" font-size="18">Paladin • Archmage • Hunter</text>
  <rect x="84" y="248" width="640" height="14" rx="7" fill="#0c1629"/>
  <rect x="84" y="248" width="455" height="14" rx="7" fill="#58b9ff"/>

  <rect x="62" y="300" width="684" height="120" rx="10" fill="#2c1b2f"/>
  <text x="84" y="334" fill="#ff8da2" font-family="Segoe UI, Arial" font-size="22" font-weight="700">Chaos Team</text>
  <text x="84" y="365" fill="#ffe4ea" font-family="Segoe UI, Arial" font-size="18">Death Knight • Warlock • Rogue</text>
  <rect x="84" y="380" width="640" height="14" rx="7" fill="#1b1018"/>
  <rect x="84" y="380" width="266" height="14" rx="7" fill="#f06f89"/>

  <rect x="62" y="434" width="684" height="76" rx="10" fill="#152846"/>
  <text x="84" y="466" fill="#c8daf8" font-family="Consolas, monospace" font-size="17">queueAnimation(attack) • highlightTarget(enemy_rogue)</text>
  <text x="84" y="492" fill="#86efac" font-family="Consolas, monospace" font-size="17">setBattlePhase('victory') ready when hp &lt;= 0</text>

  <rect x="788" y="112" width="452" height="420" rx="12" fill="#101d36" stroke="#39588f"/>
  <text x="810" y="146" fill="#f7cb62" font-family="Segoe UI, Arial" font-size="24" font-weight="700">Select Battle Loadout</text>
  <rect x="1138" y="120" width="84" height="30" rx="8" fill="#2a4678"/>
  <text x="1155" y="141" fill="#e7f1ff" font-family="Consolas, monospace" font-size="18">0:42</text>

  <rect x="810" y="166" width="408" height="54" rx="8" fill="#1c3258"/>
  <text x="826" y="188" fill="#dce9ff" font-family="Segoe UI, Arial" font-size="16">Asterion • Paladin</text>
  <text x="826" y="209" fill="#ffd983" font-family="Segoe UI, Arial" font-size="15">selection: 6/6</text>

  <rect x="810" y="230" width="408" height="54" rx="8" fill="#173059"/>
  <text x="826" y="252" fill="#dce9ff" font-family="Segoe UI, Arial" font-size="16">Hexline • Warlock</text>
  <text x="826" y="273" fill="#ffd983" font-family="Segoe UI, Arial" font-size="15">selection: 5/6</text>

  <text x="810" y="316" fill="#8fa7d3" font-family="Segoe UI, Arial" font-size="16">Active traits (4 required)</text>
  <rect x="810" y="328" width="408" height="36" rx="8" fill="#203d68"/>
  <text x="824" y="351" fill="#e7f1ff" font-family="Segoe UI, Arial" font-size="15">Arc Burst  •  Barrier Sigil  •  Focus Lens</text>

  <text x="810" y="392" fill="#8fa7d3" font-family="Segoe UI, Arial" font-size="16">Passive traits (2 required)</text>
  <rect x="810" y="404" width="408" height="36" rx="8" fill="#203d68"/>
  <text x="824" y="427" fill="#e7f1ff" font-family="Segoe UI, Arial" font-size="15">Battle Trance  •  Mystic Aegis</text>

  <rect x="810" y="462" width="408" height="50" rx="10" fill="#2c4f86"/>
  <text x="938" y="494" fill="#f7fbff" font-family="Segoe UI, Arial" font-size="20" font-weight="700">Confirm Loadouts</text>

  <rect x="40" y="552" width="1200" height="128" rx="12" fill="#101d35" stroke="#355081"/>
  <text x="64" y="592" fill="#f7cb62" font-family="Segoe UI, Arial" font-size="28" font-weight="700">Built from current PvP components</text>
  <text x="64" y="628" fill="#b8caea" font-family="Segoe UI, Arial" font-size="22">References: BattleLoadout.svelte + PhaserBattleView.svelte + battleBridge animations.</text>
</svg>
